<?xml version="1.0" encoding="utf-8"?>
<!-- Generator: Adobe Illustrator 15.1.0, SVG Export Plug-In . SVG Version: 6.00 Build 0)  -->
<!DOCTYPE svg PUBLIC "-//W3C//DTD SVG 1.1 Tiny//EN" "http://www.w3.org/Graphics/SVG/1.1/DTD/svg11-tiny.dtd">
<svg version="1.1" baseProfile="tiny" id="Layer_1" xmlns="http://www.w3.org/2000/svg" xmlns:xlink="http://www.w3.org/1999/xlink"
	 x="0px" y="0px" width="692px" height="466px" viewBox="0 0 692 466" overflow="inherit" xml:space="preserve">
<g>
	<linearGradient id="SVGID_1_" gradientUnits="userSpaceOnUse" x1="346.0005" y1="465.7139" x2="346.0005" y2="0.2866">
		<stop  offset="0.0056" style="stop-color:#DEE3E6"/>
		<stop  offset="0.2528" style="stop-color:#FFFDE5"/>
		<stop  offset="0.4008" style="stop-color:#EFE8D5"/>
		<stop  offset="0.5955" style="stop-color:#D6CDC1"/>
		<stop  offset="0.7865" style="stop-color:#EDEDEE"/>
		<stop  offset="1" style="stop-color:#D7D6CC"/>
	</linearGradient>
	<polygon fill="url(#SVGID_1_)" points="691.569,290.687 346.513,465.714 0.431,290.687 0.431,84.691 0.431,0.286 691.569,0.286 
		691.569,84.691 	"/>
	<linearGradient id="SVGID_2_" gradientUnits="userSpaceOnUse" x1="345.9995" y1="8.1431" x2="345.9995" y2="457.8579">
		<stop  offset="0.0056" style="stop-color:#DEE3E6"/>
		<stop  offset="0.2528" style="stop-color:#FFFDE5"/>
		<stop  offset="0.4008" style="stop-color:#EFE8D5"/>
		<stop  offset="0.5955" style="stop-color:#D6CDC1"/>
		<stop  offset="0.7865" style="stop-color:#EDEDEE"/>
		<stop  offset="1" style="stop-color:#D6D6D3"/>
	</linearGradient>
	<polygon fill="url(#SVGID_2_)" points="682.31,290.762 346.5,457.857 9.69,290.762 9.69,90.286 9.69,8.143 682.31,8.143 
		682.31,90.286 	"/>
	<g id="web_GLydrs">
		<g>
			<g>
				<path stroke="#000000" stroke-width="25" stroke-miterlimit="10" d="M169.567,241.065l-20.23-8.185
					c-10.81,7.207-22.65,10.811-35.519,10.811c-17.504,0-32.483-6.201-44.939-18.609c-12.458-12.404-18.686-27.307-18.686-44.707
					c0-17.397,6.228-32.3,18.686-44.708c12.456-12.405,27.435-18.609,44.939-18.609h42.004l4.942,23.319h-53.587v77.369h15.289
					v-39.225h47.101V241.065z"/>
				<path stroke="#000000" stroke-width="25" stroke-miterlimit="10" d="M270.41,217.746l-5.56,23.319h-84.473V117.059h52.969
					v100.688H270.41z"/>
				<path stroke="#000000" stroke-width="25" stroke-miterlimit="10" d="M350.094,138.216l-32.43,58.683v44.322h-40.923v-41.079
					l-36.909-61.926h49.108l18.377,30.731l16.833-30.731H350.094z"/>
				<path stroke="#000000" stroke-width="25" stroke-miterlimit="10" d="M452.326,189.641c0,14.207-5.046,26.357-15.135,36.445
					c-10.091,10.091-22.188,15.135-36.291,15.135h-45.402V138.216H400.9c14.104,0,26.2,5.045,36.291,15.134
					C447.28,163.441,452.326,175.537,452.326,189.641z M413.719,221.762v-64.088h-16.061v64.088H413.719z"/>
				<path stroke="#000000" stroke-width="25" stroke-miterlimit="10" d="M572.007,241.221h-44.63l-22.547-37.219v37.219h-44.012
					V138.216h59.764c7.822,0,14.541,2.806,20.152,8.416c5.611,5.613,8.417,12.331,8.417,20.153c0,10.501-4.479,18.531-13.436,24.091
					L572.007,241.221z M516.721,186.553v-28.879H504.83v28.879H516.721z"/>
				<path stroke="#000000" stroke-width="25" stroke-miterlimit="10" d="M641.809,213.268c0,7.621-2.729,14.184-8.186,19.69
					c-5.458,5.509-11.994,8.263-19.612,8.263h-35.981l-10.193-19.459h30.423l-26.253-40.769c-2.779-4.425-4.17-9.367-4.17-14.825
					c0-7.618,2.754-14.181,8.263-19.69c5.506-5.506,12.069-8.262,19.689-8.262h39.534l6.331,19.458h-30.73l26.562,40.461
					C640.365,202.562,641.809,207.607,641.809,213.268z"/>
			</g>
			<g>
				<path stroke="#000000" stroke-width="15" stroke-miterlimit="10" d="M332.082,46.525l-18.719,63.501h-19.429l-8.135-27.091
					l-8.056,27.091h-18.481l-19.113-63.501h29.065l7.187,24.326l7.424-24.326h17.771l6.477,21.483l7.029-21.483H332.082z"/>
				<path stroke="#000000" stroke-width="15" stroke-miterlimit="10" d="M373.072,100.153l-2.369,9.952h-35.858V57.424h35.858
					l2.369,9.952h-15.717v13.348h10.504l2.369,9.873h-12.873v9.557H373.072z"/>
				<path stroke="#000000" stroke-width="15" stroke-miterlimit="10" d="M424.962,94.625c0,4.265-1.606,7.912-4.817,10.939
					c-3.213,3.028-7.082,4.542-11.611,4.542h-31.275V57.424h31.275c3.477,0,6.438,1.172,8.887,3.515
					c2.447,2.343,3.672,5.147,3.672,8.412c0,2.317-0.632,4.437-1.896,6.358c-1.264,1.923-2.949,3.384-5.055,4.383
					c3.159,1.106,5.752,2.976,7.78,5.608C423.947,88.333,424.962,91.307,424.962,94.625z M404.9,77.407V67.376h-6.16v10.031H404.9z
					 M404.9,100.153V86.252h-6.16v13.901H404.9z"/>
			</g>
		</g>
		<g>
			<g>
				<path fill="#FFFFFF" d="M169.567,241.065l-20.23-8.185c-10.81,7.207-22.65,10.811-35.519,10.811
					c-17.504,0-32.483-6.201-44.939-18.609c-12.458-12.404-18.686-27.307-18.686-44.707c0-17.397,6.228-32.3,18.686-44.708
					c12.456-12.405,27.435-18.609,44.939-18.609h42.004l4.942,23.319h-53.587v77.369h15.289v-39.225h47.101V241.065z"/>
				<path fill="#FFFFFF" d="M270.41,217.746l-5.56,23.319h-84.473V117.059h52.969v100.688H270.41z"/>
				<path fill="#FFFFFF" d="M350.094,138.216l-32.43,58.683v44.322h-40.923v-41.079l-36.909-61.926h49.108l18.377,30.731
					l16.833-30.731H350.094z"/>
				<path fill="#FFFFFF" d="M452.326,189.641c0,14.207-5.046,26.357-15.135,36.445c-10.091,10.091-22.188,15.135-36.291,15.135
					h-45.402V138.216H400.9c14.104,0,26.2,5.045,36.291,15.134C447.28,163.441,452.326,175.537,452.326,189.641z M413.719,221.762
					v-64.088h-16.061v64.088H413.719z"/>
				<path fill="#FFFFFF" d="M572.007,241.221h-44.63l-22.547-37.219v37.219h-44.012V138.216h59.764
					c7.822,0,14.541,2.806,20.152,8.416c5.611,5.613,8.417,12.331,8.417,20.153c0,10.501-4.479,18.531-13.436,24.091
					L572.007,241.221z M516.721,186.553v-28.879H504.83v28.879H516.721z"/>
				<path fill="#FFFFFF" d="M641.809,213.268c0,7.621-2.729,14.184-8.186,19.69c-5.458,5.509-11.994,8.263-19.612,8.263h-35.981
					l-10.193-19.459h30.423l-26.253-40.769c-2.779-4.425-4.17-9.367-4.17-14.825c0-7.618,2.754-14.181,8.263-19.69
					c5.506-5.506,12.069-8.262,19.689-8.262h39.534l6.331,19.458h-30.73l26.562,40.461
					C640.365,202.562,641.809,207.607,641.809,213.268z"/>
			</g>
			<g>
				<path fill="#FFFFFF" d="M332.082,46.525l-18.719,63.501h-19.429l-8.135-27.091l-8.056,27.091h-18.481l-19.113-63.501h29.065
					l7.187,24.326l7.424-24.326h17.771l6.477,21.483l7.029-21.483H332.082z"/>
				<path fill="#FFFFFF" d="M373.072,100.153l-2.369,9.952h-35.858V57.424h35.858l2.369,9.952h-15.717v13.348h10.504l2.369,9.873
					h-12.873v9.557H373.072z"/>
				<path fill="#FFFFFF" d="M424.962,94.625c0,4.265-1.606,7.912-4.817,10.939c-3.213,3.028-7.082,4.542-11.611,4.542h-31.275
					V57.424h31.275c3.477,0,6.438,1.172,8.887,3.515c2.447,2.343,3.672,5.147,3.672,8.412c0,2.317-0.632,4.437-1.896,6.358
					c-1.264,1.923-2.949,3.384-5.055,4.383c3.159,1.106,5.752,2.976,7.78,5.608C423.947,88.333,424.962,91.307,424.962,94.625z
					 M404.9,77.407V67.376h-6.16v10.031H404.9z M404.9,100.153V86.252h-6.16v13.901H404.9z"/>
			</g>
		</g>
	</g>
	<linearGradient id="SVGID_3_" gradientUnits="userSpaceOnUse" x1="346.0005" y1="434.0488" x2="346.0005" y2="290.7627">
		<stop  offset="0" style="stop-color:#F37E5F"/>
		<stop  offset="0.5" style="stop-color:#EC1C24"/>
		<stop  offset="1" style="stop-color:#CF232A"/>
	</linearGradient>
	<polygon fill="url(#SVGID_3_)" points="655.524,290.763 344.57,434.049 36.476,290.763 	"/>
	<linearGradient id="SVGID_4_" gradientUnits="userSpaceOnUse" x1="345.9995" y1="297.9941" x2="345.9995" y2="426.8174">
		<stop  offset="0" style="stop-color:#F04D23"/>
		<stop  offset="0.5" style="stop-color:#EC1C24"/>
		<stop  offset="1" style="stop-color:#CF232A"/>
	</linearGradient>
	<polygon fill="url(#SVGID_4_)" points="624.283,297.994 344.715,426.817 67.717,297.994 	"/>
</g>
</svg>
